<?xml version="1.0" standalone="no"?>
<!DOCTYPE svg PUBLIC "-//W3C//DTD SVG 20010904//EN"
 "http://www.w3.org/TR/2001/REC-SVG-20010904/DTD/svg10.dtd">
<svg version="1.0" xmlns="http://www.w3.org/2000/svg"
 width="1024.000000pt" height="1024.000000pt" viewBox="0 0 1024.000000 1024.000000"
 preserveAspectRatio="xMidYMid meet">
<metadata>
Created by potrace 1.14, written by Peter Selinger 2001-2017
</metadata>
<g transform="translate(0.000000,1024.000000) scale(0.100000,-0.100000)"
fill="#000000" stroke="none">
<path d="M5106 9031 c-4 -5 65 -58 151 -117 208 -141 321 -233 435 -353 l94
-99 163 124 162 123 -33 15 c-18 7 -59 26 -91 40 -32 14 -59 26 -61 26 -1 0
-36 -25 -76 -55 -40 -30 -77 -55 -82 -55 -5 0 -102 70 -215 156 -191 146 -210
158 -276 174 -100 25 -164 33 -171 21z"/>
<path d="M5741 8851 c13 -11 28 -17 33 -14 11 7 -22 33 -42 33 -9 0 -6 -7 9
-19z"/>
<path d="M4171 8709 c-111 -103 -213 -139 -295 -105 -33 14 -36 13 -90 -27
l-57 -41 23 -18 c41 -31 129 -59 190 -59 109 -1 212 51 342 173 l70 64 -40 24
c-21 13 -48 29 -59 36 -18 11 -27 6 -84 -47z"/>
<path d="M6080 8489 c-102 -77 -191 -146 -198 -153 -10 -10 -8 -23 13 -67 13
-30 25 -61 25 -69 1 -59 24 -45 428 268 l83 65 -28 16 c-15 10 -53 31 -83 48
l-55 32 -185 -140z"/>
<path d="M4346 8507 c-124 -140 -235 -240 -304 -274 -43 -21 -62 -25 -111 -21
-72 5 -134 42 -246 149 l-74 71 -28 -20 c-15 -11 -38 -31 -51 -45 l-23 -24 90
-84 c144 -134 236 -182 354 -182 59 0 78 5 150 41 49 25 110 66 151 104 74 67
296 307 296 319 0 9 -89 79 -99 78 -3 0 -51 -50 -105 -112z"/>
<path d="M6249 8235 l-294 -224 0 -110 c0 -61 1 -111 3 -111 3 0 712 538 726
551 11 10 6 13 -85 78 l-55 40 -295 -224z"/>
<path d="M4554 8348 c-55 -57 -155 -165 -223 -241 -238 -265 -346 -321 -487
-252 -60 29 -223 182 -360 337 l-59 67 -44 -50 -43 -49 58 -68 c102 -117 277
-288 334 -326 59 -39 162 -76 214 -76 145 0 277 97 553 405 74 82 162 176 196
207 l61 58 -44 45 c-24 25 -47 45 -50 45 -3 0 -51 -46 -106 -102z"/>
<path d="M6358 7935 l-415 -315 -16 -118 c-8 -64 -13 -119 -11 -121 2 -2 84
57 181 131 98 74 288 219 423 322 135 102 250 186 255 186 6 0 96 -66 200
-146 105 -80 203 -155 219 -167 l29 -21 -24 44 c-38 70 -205 316 -250 370 -35
41 -126 120 -165 143 -7 4 -193 -131 -426 -308z"/>
<path d="M4849 8186 c-116 -41 -213 -125 -456 -393 -251 -277 -342 -348 -448
-348 -101 0 -197 73 -420 320 -90 99 -188 204 -218 233 l-54 53 -37 -52 -38
-52 54 -56 c30 -31 112 -120 182 -198 180 -202 284 -296 375 -341 68 -33 83
-37 155 -37 68 0 91 5 141 28 103 48 198 132 384 336 275 303 359 373 468 390
l43 6 -41 63 c-23 34 -44 62 -48 62 -3 -1 -22 -7 -42 -14z"/>
<path d="M6340 7539 c-239 -182 -442 -338 -451 -347 -15 -15 -77 -258 -68
-266 2 -2 213 156 469 351 256 195 470 357 477 359 6 3 170 -116 365 -264 194
-149 355 -269 357 -267 4 5 -35 106 -91 230 l-39 90 -250 190 c-137 105 -269
204 -292 222 l-43 32 -434 -330z"/>
<path d="M4853 7806 c-107 -34 -210 -121 -434 -367 -218 -240 -291 -308 -373
-349 -146 -74 -235 -22 -537 311 -204 224 -300 316 -377 361 -29 16 -54 29
-56 27 -14 -20 -56 -100 -56 -108 0 -6 17 -19 39 -30 59 -31 167 -135 359
-347 180 -200 287 -295 382 -342 47 -23 68 -27 145 -27 82 0 97 3 156 32 95
47 191 134 387 351 207 229 286 302 369 344 50 24 71 30 105 26 47 -6 96 -25
144 -58 l32 -20 -6 47 c-3 27 -10 66 -16 88 -10 34 -18 42 -56 57 -53 20 -148
22 -207 4z"/>
<path d="M6265 7100 l-500 -380 -22 -88 c-12 -48 -23 -90 -23 -93 0 -4 11 -14
25 -23 l25 -17 497 378 c273 208 500 379 503 381 3 1 204 -148 445 -332 242
-184 440 -334 442 -333 7 8 -81 274 -95 289 -30 30 -777 598 -787 598 -5 0
-235 -171 -510 -380z"/>
<path d="M2861 7375 c-50 -110 -51 -107 10 -84 132 50 221 -9 541 -363 95
-105 204 -217 241 -248 171 -145 309 -169 467 -83 94 51 170 121 383 356 260
286 345 352 452 351 49 0 144 -39 160 -64 15 -24 25 6 25 74 l0 74 -52 23
c-41 18 -71 23 -133 24 -74 0 -88 -3 -155 -37 -99 -49 -203 -143 -398 -358
-262 -289 -351 -360 -451 -360 -108 0 -197 70 -459 358 -251 276 -327 341
-446 382 -33 11 -81 20 -107 20 l-49 0 -29 -65z"/>
<path d="M6266 6719 l-498 -379 -40 31 c-21 17 -40 30 -42 28 -2 -2 -13 -44
-25 -94 l-22 -90 28 -23 c15 -12 45 -34 65 -48 l38 -27 57 44 c32 24 254 192
494 375 240 182 441 334 446 337 5 3 229 -162 498 -368 270 -205 491 -372 493
-370 5 5 -37 215 -48 241 -8 20 -921 725 -937 723 -5 0 -232 -171 -507 -380z"/>
<path d="M2859 7046 c-49 -14 -143 -62 -158 -80 -5 -6 -23 -58 -41 -115 -17
-57 -35 -111 -38 -120 -3 -9 29 16 71 54 105 96 176 135 246 135 110 0 190
-63 455 -354 216 -237 301 -315 399 -362 87 -42 154 -51 231 -31 125 33 233
124 505 425 282 314 376 366 533 298 13 -6 18 2 27 44 16 74 14 80 -21 94 -91
38 -204 24 -307 -37 -73 -43 -207 -173 -392 -378 -276 -307 -380 -365 -524
-295 -72 36 -162 121 -380 361 -189 208 -287 294 -386 339 -68 31 -157 40
-220 22z"/>
<path d="M6267 6338 l-498 -380 -74 56 c-41 31 -78 56 -83 56 -8 0 -42 -144
-42 -176 0 -18 190 -156 206 -150 8 3 235 173 505 378 269 205 492 373 493
373 2 0 225 -169 495 -375 270 -206 497 -376 504 -378 7 -1 20 3 29 10 16 12
16 21 4 107 -7 52 -18 97 -23 98 -6 2 -235 175 -508 383 -274 209 -500 380
-504 379 -3 0 -230 -172 -504 -381z"/>
<path d="M2884 6670 c-89 -18 -201 -89 -295 -187 -45 -46 -48 -53 -73 -167
-14 -66 -25 -121 -23 -122 2 -2 39 37 83 87 148 170 274 259 363 259 105 -1
197 -72 434 -333 210 -231 283 -302 367 -356 128 -83 235 -91 362 -28 97 48
203 143 391 352 259 287 339 352 445 364 l56 6 13 50 c7 28 13 55 13 61 0 18
-64 23 -127 10 -133 -27 -238 -112 -504 -406 -243 -270 -339 -345 -444 -344
-102 1 -198 74 -421 322 -188 210 -267 288 -352 349 -99 72 -200 101 -288 83z"/>
<path d="M6274 5960 c-274 -209 -502 -380 -505 -380 -3 0 -54 36 -113 81 -59
44 -110 79 -112 76 -8 -8 -27 -176 -21 -190 3 -7 59 -55 125 -105 l120 -92
488 371 c268 204 495 376 504 381 14 9 102 -54 516 -370 l499 -380 37 26 37
27 -6 100 c-3 55 -7 102 -9 103 -1 2 -16 -4 -32 -13 l-29 -17 -464 354 c-255
194 -480 366 -500 381 l-35 26 -500 -379z"/>
<path d="M2820 6267 c-31 -12 -78 -38 -105 -57 -54 -37 -241 -214 -256 -242
-10 -18 -42 -228 -36 -234 2 -2 41 40 88 92 137 156 264 273 333 305 146 69
235 18 527 -306 210 -232 316 -330 414 -382 66 -36 75 -38 160 -38 79 0 97 4
148 29 98 48 194 133 386 345 201 220 292 308 358 343 38 20 45 30 59 78 8 30
18 64 21 74 5 17 1 18 -28 12 -57 -11 -150 -62 -221 -121 -37 -30 -155 -152
-263 -270 -281 -308 -369 -374 -477 -362 -100 12 -188 84 -414 333 -308 341
-408 416 -563 422 -61 2 -87 -2 -131 -21z"/>
<path d="M6275 5579 c-274 -208 -502 -379 -507 -379 -5 0 -62 40 -126 88 -64
49 -123 92 -129 96 -10 6 -13 -18 -13 -103 l0 -111 134 -100 134 -101 501 381
c318 241 506 378 514 374 6 -5 228 -173 492 -374 264 -201 485 -369 491 -373
6 -3 30 7 52 24 l42 31 0 109 c0 60 -3 109 -6 109 -3 0 -23 -13 -43 -29 l-36
-28 -361 276 c-199 152 -425 324 -501 383 l-140 106 -498 -379z"/>
<path d="M2834 5891 c-98 -36 -195 -112 -332 -259 l-101 -109 -7 -108 -7 -109
131 146 c227 252 319 322 422 322 109 0 190 -64 486 -390 256 -282 371 -364
513 -366 75 -1 124 14 199 59 92 57 164 125 358 338 96 107 199 216 229 242
52 46 55 51 71 126 9 43 14 81 11 84 -8 8 -46 -15 -125 -74 -42 -33 -147 -137
-251 -252 -214 -236 -307 -323 -383 -362 -153 -77 -241 -21 -612 389 -234 258
-338 332 -479 338 -52 3 -86 -1 -123 -15z"/>
<path d="M6266 5190 l-498 -379 -120 90 c-66 50 -122 88 -125 85 -5 -4 10
-140 23 -209 5 -21 31 -47 111 -107 59 -44 109 -80 112 -80 3 1 230 172 505
381 322 245 503 376 510 371 191 -149 987 -752 991 -752 4 0 22 12 40 26 l34
25 3 110 c2 60 -1 109 -5 109 -5 0 -23 -11 -40 -24 l-32 -25 -497 380 c-274
208 -501 379 -505 379 -5 0 -232 -171 -507 -380z"/>
<path d="M2867 5520 c-106 -27 -236 -125 -385 -292 l-102 -113 0 -93 c0 -52 4
-92 9 -90 5 2 70 72 146 156 261 292 365 348 510 277 65 -31 207 -167 409
-393 160 -177 242 -249 345 -300 65 -32 82 -36 145 -36 162 2 259 73 578 426
93 103 179 195 192 205 19 16 24 30 28 101 5 60 3 82 -6 82 -22 0 -178 -151
-337 -328 -248 -274 -348 -352 -454 -352 -107 0 -200 74 -476 381 -90 100
-195 208 -234 241 -130 109 -260 155 -368 128z"/>
<path d="M6267 4809 l-499 -380 -56 42 c-32 24 -72 54 -91 68 l-34 26 6 -42
c4 -23 16 -82 28 -132 l21 -91 58 -45 c32 -25 62 -45 67 -45 5 0 233 171 507
379 l499 379 166 -126 c91 -70 315 -240 496 -379 182 -139 335 -253 340 -252
33 0 43 27 53 139 5 63 8 117 6 119 -1 2 -15 -6 -30 -18 -14 -11 -31 -18 -38
-14 -6 4 -228 173 -493 375 -266 203 -488 370 -495 373 -7 2 -237 -167 -511
-376z"/>
<path d="M2884 5140 c-110 -22 -200 -86 -368 -261 l-126 -132 1 -56 c0 -31 3
-73 7 -94 l7 -37 125 141 c251 284 367 350 505 285 78 -36 161 -112 344 -314
92 -103 199 -216 236 -251 185 -173 325 -209 489 -127 94 47 199 142 395 361
90 99 186 201 215 227 l52 46 -7 59 c-4 32 -8 66 -8 76 -1 17 -4 16 -33 -5
-60 -42 -168 -151 -335 -335 -407 -451 -471 -449 -887 17 -168 187 -257 274
-335 327 -95 63 -194 89 -277 73z"/>
<path d="M6409 4534 c-200 -152 -426 -324 -502 -382 l-138 -104 -36 25 c-21
15 -38 25 -39 24 -4 -3 63 -267 68 -272 2 -3 227 165 498 372 272 206 500 378
507 380 7 3 231 -162 498 -366 267 -204 489 -371 494 -371 4 0 14 42 20 93 7
50 15 100 17 109 4 13 1 16 -9 12 -10 -3 -187 126 -479 348 -254 195 -479 366
-499 381 l-36 27 -364 -276z"/>
<path d="M2848 4751 c-98 -32 -239 -144 -377 -300 l-61 -69 6 -86 c4 -48 10
-85 14 -84 4 2 53 53 107 114 131 147 244 248 309 279 143 68 244 7 544 -327
207 -230 303 -318 399 -366 68 -33 83 -37 156 -37 88 0 133 15 215 69 85 56
142 110 314 301 174 190 265 282 320 322 l30 21 -12 62 c-6 34 -13 65 -16 67
-7 7 -85 -45 -145 -96 -30 -25 -139 -139 -244 -253 -272 -299 -350 -361 -457
-362 -109 -2 -199 67 -433 327 -208 232 -318 335 -409 383 -64 33 -83 38 -153
41 -44 1 -92 -2 -107 -6z"/>
<path d="M6295 4064 c-264 -200 -484 -370 -489 -378 -14 -21 25 -188 42 -181
7 3 217 160 467 350 250 190 456 345 459 345 3 0 211 -157 463 -349 252 -192
459 -348 460 -347 5 5 44 188 41 191 -2 1 -212 161 -467 356 -256 195 -472
359 -481 366 -13 9 -94 -48 -495 -353z"/>
<path d="M2833 4361 c-83 -28 -160 -85 -279 -206 l-110 -112 9 -79 c5 -43 11
-81 13 -83 2 -2 72 66 156 151 164 166 240 218 318 218 99 0 215 -95 492 -401
173 -192 270 -279 365 -325 51 -25 69 -29 148 -29 82 0 97 3 156 32 95 47 192
135 394 358 194 214 285 299 358 334 26 13 47 27 47 31 0 12 -22 114 -25 118
-6 6 -93 -33 -135 -62 -86 -57 -151 -119 -320 -306 -208 -230 -293 -310 -372
-350 -149 -74 -240 -21 -546 318 -243 269 -324 340 -442 389 -68 28 -154 30
-227 4z"/>
<path d="M6317 3699 l-449 -341 7 -47 c4 -26 12 -71 18 -99 l12 -51 434 329
c252 192 438 327 445 323 6 -4 193 -146 414 -315 222 -169 407 -308 411 -308
11 0 55 156 48 173 -6 15 -860 671 -880 675 -6 1 -214 -151 -460 -339z"/>
<path d="M2855 3987 c-94 -32 -219 -120 -317 -224 l-46 -50 14 -74 c8 -41 14
-78 14 -84 0 -5 41 34 90 87 111 119 207 193 278 214 47 14 57 14 106 0 96
-28 158 -83 414 -365 190 -208 280 -291 370 -339 120 -63 217 -62 342 4 88 46
186 138 395 369 239 265 332 337 437 338 30 1 47 5 45 11 -3 6 -10 37 -18 70
l-13 58 -50 -6 c-130 -15 -258 -114 -510 -393 -271 -301 -361 -369 -475 -361
-48 3 -71 12 -116 42 -83 55 -126 97 -340 332 -208 228 -286 297 -390 345 -77
36 -167 46 -230 26z"/>
<path d="M6365 3354 c-220 -168 -410 -313 -423 -322 -22 -17 -22 -20 -15 -124
l8 -107 419 319 420 319 25 -19 c14 -10 179 -136 366 -279 187 -143 343 -257
346 -253 3 4 18 42 34 85 23 67 26 81 14 91 -33 31 -780 596 -787 595 -4 0
-187 -138 -407 -305z"/>
<path d="M2864 3606 c-79 -19 -143 -59 -257 -162 l-49 -44 18 -74 17 -75 91
85 c209 194 316 192 521 -11 50 -49 159 -164 241 -255 221 -243 314 -314 445
-342 44 -9 69 -9 117 2 130 27 246 123 523 431 164 181 244 254 323 294 63 31
131 33 187 4 23 -11 43 -18 46 -15 11 11 -21 147 -36 156 -37 19 -109 22 -172
6 -130 -33 -229 -116 -504 -421 -227 -251 -325 -327 -425 -328 -107 -2 -206
78 -492 394 -222 247 -329 331 -456 358 -63 13 -72 13 -138 -3z"/>
<path d="M6344 2954 c-397 -301 -430 -328 -437 -362 -5 -20 -19 -80 -32 -132
-13 -52 -23 -96 -21 -97 2 -2 207 152 457 342 250 190 459 345 464 345 6 0
142 -102 304 -225 161 -124 297 -225 300 -225 4 0 23 36 43 80 l36 80 -331
253 c-183 139 -337 256 -343 260 -7 4 -192 -130 -440 -319z"/>
<path d="M2880 3226 c-60 -13 -157 -61 -208 -105 l-32 -28 19 -56 c11 -32 23
-62 26 -67 4 -6 30 10 58 35 109 96 199 117 293 70 80 -40 161 -114 333 -304
221 -245 321 -338 417 -387 71 -36 84 -39 158 -39 68 0 91 5 141 28 103 48
199 132 381 333 285 315 384 394 486 394 45 0 108 -25 159 -61 l29 -20 0 75
c0 87 -6 97 -82 122 -100 33 -193 19 -296 -43 -94 -58 -158 -118 -364 -345
-262 -287 -347 -354 -453 -352 -103 1 -198 73 -419 319 -258 285 -354 371
-461 413 -68 26 -120 31 -185 18z"/>
<path d="M6274 2521 l-499 -380 -38 -88 -39 -88 33 -27 c18 -15 37 -24 43 -21
6 4 226 170 489 370 263 200 486 369 496 374 14 10 48 -12 207 -133 104 -79
205 -156 225 -171 l37 -28 46 77 c26 42 46 77 44 79 -16 11 -526 400 -534 406
-7 6 -193 -130 -510 -370z"/>
<path d="M2817 2826 c-33 -13 -61 -26 -63 -29 -6 -6 46 -117 55 -117 5 0 30
10 56 21 130 58 228 -7 550 -363 183 -203 288 -297 385 -345 47 -23 68 -27
145 -28 82 0 96 3 156 32 95 47 191 134 387 351 207 229 286 302 370 344 53
26 69 30 113 25 28 -4 70 -18 94 -31 l42 -25 12 56 c16 80 16 80 -31 105 -36
19 -59 23 -133 23 -79 0 -97 -4 -148 -29 -99 -48 -196 -135 -390 -349 -216
-238 -289 -306 -371 -347 -145 -73 -235 -21 -537 310 -228 251 -311 328 -408
377 -63 33 -85 38 -150 41 -62 2 -87 -2 -134 -22z"/>
<path d="M6265 2131 l-499 -379 -58 45 c-33 25 -61 43 -63 41 -7 -7 -76 -161
-73 -162 2 -1 41 -31 88 -67 47 -36 91 -68 97 -72 8 -5 196 132 513 373 328
249 505 378 513 373 7 -4 68 -50 135 -100 66 -51 125 -93 129 -93 4 1 30 30
57 66 42 56 47 67 35 79 -32 31 -355 274 -365 275 -5 0 -235 -171 -509 -379z"/>
<path d="M2922 2448 c8 -13 27 -44 42 -69 20 -31 45 -54 81 -72 73 -39 168
-129 367 -349 95 -105 204 -217 241 -248 171 -145 309 -169 467 -83 94 51 170
121 383 356 262 288 345 352 454 351 l52 -1 20 60 c12 33 18 63 15 66 -3 3
-42 6 -87 6 -71 0 -91 -4 -147 -31 -101 -48 -194 -130 -376 -331 -345 -380
-434 -437 -579 -369 -80 37 -161 111 -365 336 -192 211 -284 298 -364 345 -54
32 -130 55 -180 55 -37 0 -38 -1 -24 -22z"/>
<path d="M6266 1750 c-318 -242 -503 -377 -510 -372 -112 86 -224 170 -233
176 -10 6 -45 -50 -91 -145 -1 -4 39 -39 91 -78 l93 -71 145 39 c79 22 194 57
254 79 110 39 110 39 434 286 l324 246 32 -24 32 -25 63 64 c35 36 62 66 59
68 -2 2 -43 33 -91 70 -48 37 -90 67 -95 67 -4 0 -233 -171 -507 -380z"/>
<path d="M4822 2060 c-98 -44 -192 -125 -365 -315 -55 -60 -143 -154 -196
-208 -106 -108 -106 -104 -13 -134 l52 -17 41 40 c23 21 108 113 189 204 141
157 209 223 274 265 18 12 40 45 62 93 19 41 34 78 34 83 0 14 -31 9 -78 -11z"/>
<path d="M4546 1459 c-60 -61 -104 -114 -99 -119 20 -18 72 -29 81 -17 17 20
132 240 128 244 -1 2 -51 -47 -110 -108z"/>
<path d="M5342 1248 c-12 -23 -21 -42 -20 -44 6 -5 118 20 118 26 0 7 -64 60
-72 60 -2 0 -13 -19 -26 -42z"/>
</g>
</svg>
